<?xml version="1.0" encoding="utf-8"?>
<!-- Generator: Adobe Illustrator 13.0.0, SVG Export Plug-In . SVG Version: 6.00 Build 14948)  -->
<!DOCTYPE svg PUBLIC "-//W3C//DTD SVG 1.1//EN" "http://www.w3.org/Graphics/SVG/1.1/DTD/svg11.dtd">
<svg version="1.1" id="Capa_1" xmlns="http://www.w3.org/2000/svg" xmlns:xlink="http://www.w3.org/1999/xlink" x="0px" y="0px"
	 width="100px" height="100px" viewBox="0 0 100 100" enable-background="new 0 0 100 100" xml:space="preserve">
<circle fill="none" stroke="#FFFFFF" stroke-width="3" cx="49.5" cy="49.5" r="40"/>
<path fill="none" stroke="#FFFFFF" stroke-width="3" d="M49.499,43.502c-3.314,0.004-5.992,2.689-6,6
	c0.008,3.311,2.686,5.992,6,5.996c3.313,0,5.997-2.682,6.001-5.996C55.496,46.184,52.813,43.506,49.499,43.502z"/>
<path fill="none" stroke="#FFFFFF" stroke-width="3" d="M49.499,71.127c-3.314,0.004-5.992,2.689-6,6
	c0.008,3.311,2.686,5.992,6,5.996c3.313,0,5.997-2.682,6.001-5.996C55.496,73.809,52.813,71.131,49.499,71.127z"/>
<path fill="none" stroke="#FFFFFF" stroke-width="3" d="M49.499,15.877c-3.314,0.004-5.992,2.689-6,6
	c0.008,3.311,2.686,5.992,6,5.996c3.313,0,5.997-2.682,6.001-5.996C55.496,18.559,52.813,15.881,49.499,15.877z"/>
<line fill="none" stroke="#FFFFFF" stroke-width="3" x1="49.5" y1="27.873" x2="49.5" y2="43.502"/>
<line fill="none" stroke="#FFFFFF" stroke-width="3" x1="49.5" y1="55.498" x2="49.5" y2="71.127"/>
</svg>
