<?xml version="1.0" encoding="utf-8"?>
<!-- Generator: Adobe Illustrator 13.0.0, SVG Export Plug-In . SVG Version: 6.00 Build 14948)  -->
<!DOCTYPE svg PUBLIC "-//W3C//DTD SVG 1.1//EN" "http://www.w3.org/Graphics/SVG/1.1/DTD/svg11.dtd">
<svg version="1.1" id="Capa_1" xmlns="http://www.w3.org/2000/svg" xmlns:xlink="http://www.w3.org/1999/xlink" x="0px" y="0px"
	 width="100px" height="100px" viewBox="0 0 100 100" enable-background="new 0 0 100 100" xml:space="preserve">
<circle fill="none" stroke="#FFFFFF" stroke-width="3" cx="49.5" cy="49.5" r="40"/>
<path fill="none" stroke="#FFFFFF" stroke-width="3" d="M28.979,55.037c-4.136,4.146-4.126,10.845,0,14.99
	c4.145,4.125,10.839,4.13,14.984-0.006c4.139-4.139,4.141-10.841,0.007-14.986C39.819,50.896,33.122,50.902,28.979,55.037z"/>
<path fill="none" stroke="#FFFFFF" stroke-width="3" d="M55.037,28.979c-4.138,4.146-4.126,10.845,0,14.99
	c4.145,4.125,10.838,4.131,14.984-0.006c4.139-4.139,4.141-10.84,0.005-14.984C65.877,24.837,59.181,24.844,55.037,28.979z"/>
<line fill="none" stroke="#FFFFFF" stroke-width="3" x1="43.97" y1="53.919" x2="54.479" y2="43.411"/>
</svg>
