<?xml version="1.0" encoding="utf-8"?>
<!-- Generator: Adobe Illustrator 13.0.0, SVG Export Plug-In . SVG Version: 6.00 Build 14948)  -->
<!DOCTYPE svg PUBLIC "-//W3C//DTD SVG 1.1//EN" "http://www.w3.org/Graphics/SVG/1.1/DTD/svg11.dtd">
<svg version="1.1" id="Capa_1" xmlns="http://www.w3.org/2000/svg" xmlns:xlink="http://www.w3.org/1999/xlink" x="0px" y="0px"
	 width="100px" height="70px" viewBox="0 0 100 70" enable-background="new 0 0 100 70" xml:space="preserve">
<g>
	<path fill="#FFFFFF" d="M38.064,13.001v42.37h-9.631L28.42,26.767l-3.834,28.604h-6.83l-4.043-27.95l-0.014,27.95h-9.63v-42.37
		h14.256c0.423,2.547,0.858,5.55,1.308,9.007l1.564,10.777l2.532-19.784H38.064z"/>
	<path fill="#FFFFFF" d="M66.223,13.001v42.37H55.65v-2.52c-1.012,1.049-2.076,1.836-3.193,2.36
		c-1.116,0.522-2.285,0.785-3.507,0.785c-1.64,0-3.062-0.433-4.266-1.295c-1.203-0.863-1.976-1.861-2.315-2.996
		c-0.341-1.135-0.511-2.983-0.511-5.549v-16.25c0-2.669,0.17-4.563,0.511-5.678c0.34-1.117,1.12-2.098,2.342-2.944
		c1.221-0.846,2.678-1.269,4.37-1.269c1.309,0,2.508,0.236,3.599,0.708c1.092,0.472,2.081,1.181,2.971,2.125v-9.846h10.572V13.001z
		 M55.65,29.383c0-1.272-0.109-2.128-0.327-2.564c-0.22-0.436-0.65-0.654-1.296-0.654c-0.629,0-1.051,0.196-1.27,0.589
		s-0.326,1.269-0.326,2.629v17.012c0,1.412,0.104,2.342,0.313,2.787c0.21,0.444,0.611,0.668,1.204,0.668
		c0.681,0,1.134-0.25,1.36-0.746c0.228-0.498,0.34-1.716,0.34-3.65v-16.07H55.65z"/>
	<path fill="#FFFFFF" d="M70.331,13.001h7.799c5.198,0,8.72,0.201,10.56,0.602c1.842,0.402,3.342,1.426,4.502,3.075
		c1.16,1.649,1.74,4.279,1.74,7.89c0,3.297-0.41,5.513-1.229,6.647c-0.82,1.135-2.435,1.815-4.843,2.042
		c2.182,0.541,3.646,1.265,4.396,2.172c0.75,0.907,1.217,1.741,1.4,2.499c0.183,0.76,0.273,2.85,0.273,6.269v11.176H84.698v-14.08
		c0-2.269-0.179-3.672-0.536-4.213s-1.296-0.813-2.813-0.813v19.105H70.331V13.001z M81.35,20.25v9.421
		c1.237,0,2.105-0.17,2.604-0.51c0.498-0.341,0.746-1.443,0.746-3.311v-2.33c0-1.343-0.24-2.224-0.721-2.643
		C83.499,20.46,82.622,20.25,81.35,20.25z"/>
</g>
</svg>
